<svg width="14" height="15" viewBox="0 0 14 15" fill="none" xmlns="http://www.w3.org/2000/svg">
<circle cx="7" cy="7" r="7" fill="#EA7052"/>
<path d="M6.39453 8.17285L6.04785 3.84668H7.88867L7.54688 8.17285H6.39453ZM6.98047 11.0977C6.84375 11.0977 6.71354 11.0716 6.58984 11.0195C6.4694 10.9707 6.36361 10.9007 6.27246 10.8096C6.18132 10.7184 6.1097 10.6126 6.05762 10.4922C6.00553 10.3685 5.97949 10.235 5.97949 10.0918C5.97949 9.94206 6.00716 9.80534 6.0625 9.68164C6.12109 9.55469 6.19759 9.44564 6.29199 9.35449C6.38639 9.26335 6.49544 9.19173 6.61914 9.13965C6.74609 9.08757 6.87793 9.06152 7.01465 9.06152C7.15137 9.06152 7.27995 9.08757 7.40039 9.13965C7.52409 9.19173 7.63151 9.26335 7.72266 9.35449C7.8138 9.44564 7.88542 9.55306 7.9375 9.67676C7.98958 9.80046 8.01562 9.93392 8.01562 10.0771C8.01562 10.2236 7.98633 10.3604 7.92773 10.4873C7.8724 10.611 7.7959 10.7184 7.69824 10.8096C7.60384 10.9007 7.49479 10.9707 7.37109 11.0195C7.2474 11.0716 7.11719 11.0977 6.98047 11.0977Z" fill="white"/>
</svg>
