<svg width="449" height="272" viewBox="0 0 449 272" fill="none" xmlns="http://www.w3.org/2000/svg">
<mask id="mask0" mask-type="alpha" maskUnits="userSpaceOnUse" x="0" y="0" width="449" height="272">
<rect width="449" height="272" fill="#C4C4C4"/>
</mask>
<g mask="url(#mask0)">
<path fill-rule="evenodd" clip-rule="evenodd" d="M317.423 580.906C264.102 629.488 227.037 706.014 155.681 716.573C81.8232 727.501 -0.210717 693.041 -46.9469 634.821C-91.3439 579.515 -71.8276 500.019 -75.0315 429.169C-77.4206 376.338 -69.9441 327.303 -63.2254 274.846C-54.0432 203.156 -84.7226 111.659 -28.5406 66.1861C26.6882 21.4841 107.975 77.4916 179.015 78.7785C252.088 80.1022 329.896 36.6959 392.848 73.8197C457.209 111.775 487.932 192.002 496.815 266.191C504.975 334.334 472.9 398.894 438.912 458.519C409.732 509.711 360.98 541.221 317.423 580.906Z" fill="#1FE9F6"/>
</g>
</svg>
