<svg width="1265" height="1181" viewBox="0 0 1265 1181" fill="none" xmlns="http://www.w3.org/2000/svg">
<path d="M0 579.475C0 506.563 14.1045 433.357 42.3136 359.857C62.8827 306.937 91.6794 258.426 128.704 214.326C165.728 170.226 212.156 131.124 267.986 97.0202C323.816 62.3281 380.822 37.6321 439.003 22.932C497.185 7.64401 562.124 0 633.822 0C756.062 0 862.139 22.932 952.056 68.7961C1041.97 114.66 1112.79 176.694 1164.51 254.898C1231.5 356.623 1265 463.345 1265 575.065C1265 741.469 1208.29 884.059 1094.86 1002.84C982.028 1121.61 824.821 1181 623.244 1181C573.29 1181 526.569 1177.77 483.08 1171.3C450.17 1166.59 421.373 1160.13 396.69 1151.89C352.026 1137.19 327.049 1128.67 321.76 1126.32C257.702 1089.86 206.279 1052.52 167.491 1014.3C128.704 976.082 95.7933 932.864 68.7596 884.648C54.0674 857.599 37.3182 808.795 18.5122 738.235C6.17073 692.959 0 640.039 0 579.475ZM600.324 87.3181C549.195 87.3181 503.943 99.3722 464.568 123.48C425.193 147 395.515 173.166 375.533 201.978C342.035 250.782 318.233 304.291 304.129 362.503C290.024 420.127 282.972 490.393 282.972 573.301C282.972 623.869 285.029 660.031 289.143 681.787C290.318 688.843 292.081 700.897 294.432 717.949C299.721 761.461 305.892 793.213 312.944 813.205C338.215 887.882 356.139 934.04 366.718 951.68C384.348 981.668 410.501 1011.36 445.174 1040.76C462.805 1056.05 488.369 1070.16 521.868 1083.1C555.366 1095.45 588.864 1101.62 622.362 1101.62C685.833 1101.62 744.602 1086.92 798.669 1057.52C853.324 1027.53 897.107 976.964 930.017 905.816C962.928 834.667 979.383 742.057 979.383 627.985C979.383 580.945 976.151 517.147 969.686 436.591L965.279 419.833C963.516 415.129 960.577 403.075 956.463 383.671C934.719 287.238 892.993 213.738 831.286 163.17C770.166 112.602 693.179 87.3181 600.324 87.3181Z" fill="black"/>
</svg>
